# AST/ASF file generated using VICON BodyLanguage
# -----------------------------------------------
:version 1.10
:name VICON
:units
  mass 1.0
  length 0.45
  angle deg
:documentation
   .ast/.asf automatically generated from VICON data using
   VICON BodyBuilder and BodyLanguage model FoxedUp or BRILLIANT.MOD
:root
   order TX TY TZ RX RY RZ
   axis XYZ
   position 0 0 0  
   orientation 0 0 0 
:bonedata
  begin
     id 1 
     name lhipjoint
     direction 0.623415 -0.642378 0.445763 
     length 2.49859 
     axis 0 0 0  XYZ
  end
  begin
     id 2 
     name lfemur
     direction 0.34202 -0.939693 0  
     length 6.69689  
     axis 0 0 20  XYZ
    dof rx ry rz
    limits (-160.0 20.0)
           (-70.0 70.0)
           (-60.0 70.0)
  end
  begin
     id 3 
     name ltibia
     direction 0.34202 -0.939693 0   
     length 7.37574   
     axis 0 0 20   XYZ
    dof rx
    limits (-10.0 170.0)
  end
  begin
     id 4 
     name lfoot
     direction 0.084323 -0.231675 0.969132   
     length 2.09111   
     axis -90 7.62852e-016 20   XYZ
    dof rx rz
    limits (-45.0 90.0)
           (-70.0 20.0)
  end
  begin
     id 5 
     name ltoes
     direction 1.5357e-011 -4.21957e-011 1   
     length 1.04989   
     axis -90 7.62852e-016 20   XYZ
    dof rx
    limits (-90.0 20.0)
  end
  begin
     id 6 
     name rhipjoint
     direction -0.605402 -0.653903 0.45376   
     length 2.45455  
     axis 0 0 0  XYZ 
  end
  begin
     id 7 
     name rfemur
     direction -0.34202 -0.939693 0   
     length 6.64523   
     axis 0 0 -20   XYZ
    dof rx ry rz
    limits (-160.0 20.0)
           (-70.0 70.0)
           (-70.0 60.0)
  end
  begin
     id 8 
     name rtibia
     direction -0.34202 -0.939693 0   
     length 7.3339   
     axis 0 0 -20   XYZ
    dof rx
    limits (-10.0 170.0)
 end
 begin
     id 9 
     name rfoot
     direction -0.120854 -0.332043 0.93549   
     length 2.23135  
     axis -90 -7.62852e-016 -20   XYZ
    dof rx rz
    limits (-45.0 90.0)
           (-20.0 70.0)
  end
  begin
     id 10 
     name rtoes
     direction -1.53563e-011 -4.21914e-011 1   
     length 1.10614   
     axis -90 -7.62852e-016 -20   XYZ
    dof rx
    limits (-90.0 20.0)
  end
  begin
     id 11 
     name lowerback
     direction 0.0319682 0.998615 -0.0417941   
     length 2.02718   
     axis 0 0 0   XYZ
    dof rx ry rz
    limits (-20.0 45.0)
           (-30.0 30.0)
           (-30.0 30.0)
  end
  begin
     id 12 
     name upperback
     direction 7.63181e-005 0.995808 0.0914691   
     length 1.97539   
     axis 0 0 0   XYZ
    dof rx ry rz
    limits (-20.0 45.0)
           (-30.0 30.0)
           (-30.0 30.0)
  end
  begin
     id 13 
     name thorax
     direction -0.016423 0.993627 0.111514   
     length 2.00349   
     axis 0 0 0   XYZ
    dof rx ry rz
    limits (-20.0 45.0)
           (-30.0 30.0)
           (-30.0 30.0)
  end
  begin
     id 14 
     name lowerneck
     direction -0.174763 0.981668 -0.0760716   
     length 1.71436   
     axis 0 0 0   XYZ
    dof rx ry rz
    limits (-20.0 45.0)
           (-30.0 30.0)
           (-30.0 30.0)
  end
  begin
     id 15 
     name upperneck
     direction 0.345458 0.934587 -0.0848868   
     length 1.72805   
     axis 0 0 0   XYZ
    dof rx ry rz
    limits (-20.0 45.0)
           (-30.0 30.0)
           (-30.0 30.0)
  end
  begin
     id 16
     name head
     direction 0.13001 0.989848 -0.0574291  
     length 1.767  
     axis 0 0 0   XYZ
    dof rx ry rz
    limits (-20.0 45.0)
           (-30.0 30.0)
           (-30.0 30.0)
  end
  begin
     id 17 
     name lclavicle
     direction 0.952951 0.290122 0.0878234  
     length 3.54654  
     axis 0 0 0   XYZ
    dof ry rz
    limits (-20.0 10.0)
           (0.0 20.0)
  end
  begin
     id 18 
     name lhumerus
     direction 1 -4.48957e-011 -4.56525e-028   
     length 5.19807   
     axis 180 -30 -90   XYZ
    dof rx ry rz
    limits (-60.0 90.0)
           (-90.0 90.0)
           (-90.0 90.0)
  end
  begin
     id 19
     name lradius
     direction 1 -4.48979e-011 -2.0317e-027   
     length 3.0937   
     axis 180 -30 -90   XYZ
    dof rx
    limits (-10.0 170.0)
  end
  begin
     id 20
     name lwrist
     direction 1 -4.48953e-011 -3.05809e-027   
     length 1.54685   
     axis 8.48514e-016 90 90   XYZ
    dof ry
    limits (-180.0 0.0)
 end
  begin
     id 21 
     name lhand
     direction 1 -4.48952e-011 -6.11639e-027   
     length 0.672632   
     axis 3.9013e-015 90 90   XYZ
    dof rx rz
    limits (-90.0 90.0)
           (-45.0 45.0)
  end
  begin
     id 22 
     name lfingers
     direction 1 -4.48925e-011 -1.22426e-026   
     length 0.542293   
     axis 7.80276e-015 90 90   XYZ
    dof rx
    limits (0.0 90.0)
  end
  begin
     id 23
     name lthumb
     direction 0.707107 -6.3486e-011 0.707107   
     length 0.778628   
     axis -90 45 5.37419e-014   XYZ
    dof rx rz
    limits (-45.0 45.0)
           (-45.0 45.0)
  end
  begin
     id 24 
     name rclavicle
     direction -0.960732 0.273675 -0.0457849   
     length 3.52079  
     axis 0 0 0   XYZ 
    dof ry rz
    limits (-10.0 20.0)
           (-20.0 0.0)
  end
  begin
     id 25 
     name rhumerus
     direction -1 -4.48976e-011 -1.63613e-027  
     length 5.45222   
     axis 180 30 90   XYZ
    dof rx ry rz
    limits (-90.0 60.0)
           (-90.0 90.0)
           (-90.0 90.0)
  end
  begin
     id 26 
     name rradius
     direction -1 -4.48957e-011 -7.00033e-028   
     length 3.01284   
     axis 180 30 90   XYZ
    dof rx
    limits (-10.0 170.0)
  end
  begin
     id 27 
     name rwrist
     direction -1 -4.48983e-011 -3.05543e-027   
     length 1.50642   
     axis 8.48514e-016 -90 -90   XYZ
    dof ry
    limits (-180.0 0.0)
  end
  begin
     id 28
     name rhand
     direction -1 -4.48984e-011 -6.11072e-027   
     length 0.622296   
     axis 3.9013e-015 -90 -90   XYZ
    dof rx rz
    limits (-90.0 90.0)
           (-45.0 45.0)
  end
  begin
     id 29
     name rfingers
     direction -1 -4.48865e-011 -1.22637e-026   
     length 0.501711   
     axis 7.80276e-015 -90 -90   XYZ
    dof rx
    limits (0.0 90.0)
  end
  begin
     id 30
     name rthumb
     direction -0.707107 -6.34932e-011 0.707107   
     length 0.72036   
     axis -90 -45 -5.37419e-014   XYZ
    dof rx rz
    limits (-45.0 45.0)
           (-45.0 45.0)
  end
:hierarchy
  begin
    root lhipjoint rhipjoint lowerback
    lhipjoint lfemur
    lfemur ltibia
    ltibia lfoot
    lfoot ltoes
    rhipjoint rfemur
    rfemur rtibia
    rtibia rfoot
    rfoot rtoes
    lowerback upperback
    upperback thorax
    thorax lowerneck lclavicle rclavicle
    lowerneck upperneck
    upperneck head
    lclavicle lhumerus
    lhumerus lradius
    lradius lwrist
    lwrist lhand lthumb
    lhand lfingers
    rclavicle rhumerus
    rhumerus rradius
    rradius rwrist
    rwrist rhand rthumb
    rhand rfingers
  end

#!OML:ASF H:\Not Pregnant\Project 1\Capture day 1\Session 1\non-pregnant.ASF
:FULLY-SPECIFIED
:DEGREES
86
root -4.96977 15.8912 33.2723 115.102 -79.2389 -104.711
lowerback -8.20969 2.81007 11.3584
upperback -5.2456 2.66608 3.07922
thorax -0.539327 0.990001 -2.91606
lowerneck 15.7376 -7.25059 -30.9084
upperneck -1.97003 -17.461 42.0512
head 4.16273 -11.1712 22.3586
rclavicle -4.23287e-014 -1.88845e-014
rhumerus -36.3018 17.1115 -96.3309
rradius 27.2252
rwrist 18.7928
rhand -9.74417 1.07245
rfingers 7.12502
rthumb 16.23 -28.2682
lclavicle -4.23287e-014 -1.88845e-014
lhumerus -41.3577 -12.2034 98.1839
lradius 35.7531
lwrist 39.6447
lhand -15.8853 -11.8139
lfingers 7.12502
lthumb 10.3108 17.9133
rfemur -16.94 -27.3015 37.8446
rtibia 20.1299
rfoot -14.7064 34.3613
rtoes 14.2459
lfemur -24.5914 -6.64695 -0.0344731
ltibia 33.0241
lfoot -17.9797 3.62846
ltoes -29.5248
87
root -4.96382 15.8838 33.2584 114.728 -79.1449 -104.41
lowerback -8.23772 2.81186 11.3699
upperback -5.18658 2.65441 3.21298
thorax -0.468357 0.989753 -2.78149
lowerneck 15.5227 -7.17237 -30.9722
upperneck -1.88111 -17.2729 41.9493
head 4.13397 -11.0389 22.323
rclavicle 7.45443e-017 -9.54166e-015
rhumerus -36.2122 17.1331 -96.1371
rradius 27.0541
rwrist 18.8869
rhand -9.83173 0.85818
rfingers 7.12502
rthumb 16.1457 -28.4893
lclavicle 7.45443e-017 -9.54166e-015
lhumerus -41.3411 -12.0957 98.3153
lradius 35.8245
lwrist 39.8597
lhand -15.9378 -11.9398
lfingers 7.12502
lthumb 10.2601 17.79
rfemur -16.9333 -27.5638 38.0029
rtibia 20.214
rfoot -14.5739 34.6831
rtoes 14.6994
lfemur -24.6306 -6.82418 0.151198
ltibia 33.2301
lfoot -18.0386 3.80937
ltoes -29.4628
88
root -4.95893 15.8772 33.242 114.492 -79.0608 -104.268
lowerback -8.25222 2.84111 11.3492
upperback -5.14298 2.68616 3.30453
thorax -0.414706 1.01045 -2.67021
lowerneck 15.3942 -7.08828 -30.9715
upperneck -1.81554 -17.0905 41.8771
head 4.08045 -10.9216 22.2998
rclavicle -8.05078e-015 -3.49861e-014
rhumerus -36.1312 16.9551 -95.948
rradius 26.8448
rwrist 19.0717
rhand -9.91169 0.707667
rfingers 7.12502
rthumb 16.0687 -28.6461
lclavicle -8.05078e-015 -3.49861e-014
lhumerus -41.3931 -12.1313 98.4493
lradius 35.8912
lwrist 40.0635
lhand -15.9673 -12.0818
lfingers 7.12502
lthumb 10.2317 17.6494
rfemur -16.8709 -27.7216 38.1238
rtibia 20.2798
rfoot -14.4978 34.8937
rtoes 15.0299
lfemur -24.5996 -6.98342 0.317419
ltibia 33.3769
lfoot -18.0924 3.98998
ltoes -29.3968
89
root -4.9553 15.8714 33.2237 114.401 -78.9943 -104.29
lowerback -8.2595 2.90257 11.2837
upperback -5.11133 2.76762 3.3543
thorax -0.371069 1.05612 -2.57396
lowerneck 15.3571 -7.00881 -30.8847
upperneck -1.78896 -16.9195 41.8252
head 3.99526 -10.8208 22.2717
rclavicle -1.68222e-014 1.94809e-014
rhumerus -36.0441 16.5421 -95.7315
rradius 26.5894
rwrist 19.3762
rhand -9.98695 0.627236
rfingers 7.12502
rthumb 15.9962 -28.7323
lclavicle -1.68222e-014 1.94809e-014
lhumerus -41.5207 -12.3547 98.6215
lradius 35.9591
lwrist 40.222
lhand -16.0449 -12.2273
lfingers 7.12502
lthumb 10.1569 17.5076
rfemur -16.7518 -27.7706 38.1952
rtibia 20.3266
rfoot -14.4839 34.9864
rtoes 15.2247
lfemur -24.4991 -7.13544 0.452575
ltibia 33.4666
lfoot -18.1394 4.18083
ltoes -29.3526
90
root -4.95231 15.8668 33.2056 114.401 -78.9473 -104.405
lowerback -8.26837 2.96949 11.1907
upperback -5.08569 2.85917 3.38979
thorax -0.332288 1.10696 -2.47673
lowerneck 15.3387 -6.92993 -30.7791
upperneck -1.7621 -16.7528 41.7751
head 3.90656 -10.7242 22.2401
rclavicle -1.09829e-014 -1.92821e-014
rhumerus -35.9507 16.0466 -95.4955
rradius 26.3097
rwrist 19.731
rhand -10.0498 0.592451
rfingers 7.12502
rthumb 15.9357 -28.772
lclavicle -1.09829e-014 -1.92821e-014
lhumerus -41.677 -12.632 98.8184
lradius 35.9983
lwrist 40.231
lhand -16.2049 -12.3757
lfingers 7.12502
lthumb 10.0025 17.3666
rfemur -16.6137 -27.74 38.2287
rtibia 20.3651
rfoot -14.5042 34.9934
rtoes 15.3425
lfemur -24.3633 -7.29573 0.557336
ltibia 33.5083
lfoot -18.1693 4.39265
ltoes -29.345
91
root -4.94935 15.8634 33.1899 114.417 -78.9248 -104.52
lowerback -8.28963 3.03111 11.0993
upperback -5.06476 2.94225 3.41627
thorax -0.292644 1.15327 -2.39
lowerneck 15.2984 -6.85454 -30.6618
upperneck -1.72161 -16.5846 41.7124
head 3.82217 -10.6233 22.1927
rclavicle 1.67973e-014 -4.96962e-015
rhumerus -35.8432 15.526 -95.2449
rradius 26.0162
rwrist 20.1148
rhand -10.0947 0.573943
rfingers 7.12502
rthumb 15.8924 -28.7939
lclavicle 1.67973e-014 -4.96962e-015
lhumerus -41.8412 -12.9144 99.0375
lradius 36.0137
lwrist 40.0988
lhand -16.4701 -12.507
lfingers 7.12502
lthumb 9.74662 17.2474
rfemur -16.4998 -27.6933 38.2388
rtibia 20.4045
rfoot -14.538 34.972
rtoes 15.4131
lfemur -24.2319 -7.49151 0.631298
ltibia 33.5129
lfoot -18.1745 4.62513
ltoes -29.32
92
root -4.94598 15.8614 33.178 114.438 -78.9354 -104.613
lowerback -8.32522 3.06007 11.0122
upperback -5.04428 2.97876 3.45886
thorax -0.25215 1.17608 -2.29265
lowerneck 15.1684 -6.77436 -30.5964
upperneck -1.62469 -16.4023 41.6145
head 3.76631 -10.5031 22.1291
rclavicle 2.78299e-015 1.98785e-016
rhumerus -35.6932 15.0252 -94.9159
rradius 25.6865
rwrist 20.6551
rhand -10.0042 0.789295
rfingers 7.12502
rthumb 15.9796 -28.5716
lclavicle 2.78299e-015 1.98785e-016
lhumerus -41.9644 -13.0491 99.2209
lradius 36.0044
lwrist 39.9604
lhand -16.644 -12.6257
lfingers 7.12502
lthumb 9.57883 17.1366
rfemur -16.4381 -27.6599 38.2238
rtibia 20.4548
rfoot -14.5527 34.9558
rtoes 15.4953
lfemur -24.1301 -7.73245 0.665214
ltibia 33.4911
lfoot -18.1535 4.87821
ltoes -29.2599
93
root -4.94205 15.8605 33.1697 114.455 -78.9712 -104.666
lowerback -8.37498 3.07522 10.9589
upperback -5.02736 2.99272 3.49006
thorax -0.208637 1.18671 -2.22724
lowerneck 15.0401 -6.70641 -30.3386
upperneck -1.64922 -16.1798 41.8175
head 3.65965 -10.3449 21.6048
rclavicle 1.75427e-014 -3.81667e-014
rhumerus -35.4913 14.465 -94.5206
rradius 25.325
rwrist 21.3452
rhand -9.80543 1.18564
rfingers 7.12502
rthumb 16.171 -28.1598
lclavicle 1.75427e-014 -3.81667e-014
lhumerus -42.069 -13.1617 99.3996
lradius 35.9723
lwrist 39.7122
lhand -16.8912 -12.7319
lfingers 7.12502
lthumb 9.34033 17.0412
rfemur -16.4388 -27.6437 38.2007
rtibia 20.5166
rfoot -14.562 34.9461
rtoes 15.558
lfemur -24.0689 -8.00941 0.671722
ltibia 33.4477
lfoot -18.1072 5.14627
ltoes -29.1706
94
root -4.9374 15.8609 33.1651 114.455 -79.0325 -104.663
lowerback -8.44144 3.06969 10.948
upperback -5.01523 2.97387 3.51251
thorax -0.162863 1.17975 -2.19656
lowerneck 14.7502 -6.632 -30.3344
upperneck -1.45632 -15.9998 41.6903
head 3.66756 -10.2095 21.534
rclavicle -1.75427e-014 4.37326e-015
rhumerus -35.2542 13.9049 -94.0887
rradius 24.95
rwrist 22.1315
rhand -9.50898 1.74444
rfingers 7.12502
rthumb 16.4564 -27.5776
lclavicle -1.75427e-014 4.37326e-015
lhumerus -42.1454 -13.208 99.5393
lradius 35.9398
lwrist 39.5118
lhand -17.0906 -12.8148
lfingers 7.12502
lthumb 9.14792 16.9668
rfemur -16.5089 -27.6594 38.1741
rtibia 20.5869
rfoot -14.5624 34.9581
rtoes 15.5963
lfemur -24.0573 -8.31988 0.653415
ltibia 33.3846
lfoot -18.0375 5.41528
ltoes -29.0152
95
root -4.93326 15.862 33.1602 114.526 -79.1078 -104.717
lowerback -8.52207 3.06953 10.9289
upperback -5.01666 2.96227 3.51139
thorax -0.121866 1.17573 -2.18505
lowerneck 14.4727 -6.5554 -30.3069
upperneck -1.2473 -15.8218 41.5614
head 3.67575 -10.0767 21.4583
rclavicle 5.36719e-015 -1.90833e-014
rhumerus -35.0322 13.2819 -93.6624
rradius 24.588
rwrist 22.9389
rhand -9.16461 2.36142
rfingers 7.12502
rthumb 16.788 -26.9328
lclavicle 5.36719e-015 -1.90833e-014
lhumerus -42.252 -13.3053 99.6607
lradius 35.9224
lwrist 39.3682
lhand -17.2683 -12.8533
lfingers 7.12502
lthumb 8.9764 16.9358
rfemur -16.591 -27.6205 38.1355
rtibia 20.6591
rfoot -14.6026 34.9028
rtoes 15.5503
lfemur -24.0456 -8.62121 0.620824
ltibia 33.2988
lfoot -17.9661 5.67076
ltoes -28.8381
96
root -4.9296 15.8637 33.1546 114.657 -79.1867 -104.817
lowerback -8.61635 3.07693 10.9101
upperback -5.03338 2.96011 3.48992
thorax -0.0873905 1.17537 -2.19369
lowerneck 14.2209 -6.47016 -30.2705
upperneck -1.02221 -15.6443 41.4388
head 3.68363 -9.94808 21.3886
rclavicle -1.31943e-014 4.33351e-014
rhumerus -34.844 12.6278 -93.273
rradius 24.2572
rwrist 23.6833
rhand -8.82037 2.91221
rfingers 7.12502
rthumb 17.1193 -26.3536
lclavicle -1.31943e-014 4.33351e-014
lhumerus -42.418 -13.4997 99.8092
lradius 35.8798
lwrist 39.3105
lhand -17.5525 -13.1925
lfingers 7.12502
lthumb 8.7022 16.6081
rfemur -16.6656 -27.528 38.0951
rtibia 20.7026
rfoot -14.6695 34.7868
rtoes 15.4148
lfemur -24.0347 -8.90323 0.585577
ltibia 33.1993
lfoot -17.8952 5.91491
ltoes -28.672
